<?xml version="1.0" encoding="utf-8"?>
<!-- Generator: Adobe Illustrator 19.2.1, SVG Export Plug-In . SVG Version: 6.00 Build 0)  -->
<svg version="1.1" id="Layer_1" xmlns="http://www.w3.org/2000/svg" xmlns:xlink="http://www.w3.org/1999/xlink" x="0px" y="0px"
	 viewBox="0 0 413.3 548.3" style="enable-background:new 0 0 413.3 548.3;" xml:space="preserve">
<style type="text/css">
	.st0{opacity:0.7;}
	.st1{fill:#FFFFFF;}
</style>
<g class="st0">
	<g>
		<path class="st1" d="M379.6,283.3l-105.1-0.7l-0.6-1.7l96.5-67.1L379.6,283.3z M277.6,280.7l99.8,0.7l-8.4-64.2L277.6,280.7z"/>
	</g>
	<g>
		<path class="st1" d="M344.5,351.4l-67.7-52l0.5-1.7l101.2-16.2l1,1.4L344.5,351.4z M279.6,299.1l64.2,49.2l33-64.8L279.6,299.1z"
			/>
	</g>
	<g>
		<path class="st1" d="M276.5,299.6l-3-18.9l105.1,0.7l0.2,1.9L276.5,299.6z M275.7,282.6l2.4,14.8l88.8-14.2L275.7,282.6z"/>
	</g>
	<g>
		<path class="st1" d="M273.9,283.3l-14.6-87.9L370,214.5l0.4,1.7L273.9,283.3z M261.6,197.8l13.7,82.2l92-64L261.6,197.8z"/>
	</g>
	<g>
		<path class="st1" d="M300.3,354.2l-23.9-55.3l1.4-1.2l66.8,51.3l-0.5,1.7L300.3,354.2z M279.6,301.6l21.9,50.7l40.1-3.1
			L279.6,301.6z"/>
	</g>
	<g>
		<path class="st1" d="M273.9,282.3l-55.5-65l42.8-22.1l14.4,86.4L273.9,282.3z M221.4,217.9l51.6,60.5l-13.4-80.3L221.4,217.9z"/>
	</g>
	<g>
		<path class="st1" d="M300.5,354.1l-70.8-38.5l0.2-1.7l7.8-2.1l63.8,40.7L300.5,354.1z M232.6,315.1l44.8,24.3l-40.1-25.6
			L232.6,315.1z"/>
	</g>
	<g>
		<path class="st1" d="M208.9,410.1l-1.4-1.1l21.9-95.7l72,39.1v1.6L208.9,410.1z M230.7,316.2l-20.8,91l89.1-53.9L230.7,316.2z"/>
	</g>
	<g>
		<path class="st1" d="M274.5,424.6l-66.3-14.4l-0.3-1.7l92.5-56.1l1.4,1.2L274.5,424.6z M211,408.9l62.3,13.5l25.7-66.8L211,408.9z
			"/>
	</g>
	<g>
		<path class="st1" d="M300.4,354.1l-63.5-40.5l0.2-1.7l40.7-14.5l24,55.5L300.4,354.1z M239.7,312.9l59.2,37.7l-22-51L239.7,312.9z
			"/>
	</g>
	<g>
		<path class="st1" d="M225.3,102.7l-18.7-21.5L238,32.7l1.7,0.7l-12.8,68.8L225.3,102.7z M209,81.1l16.4,18.9L237,38L209,81.1z"/>
	</g>
	<g>
		<path class="st1" d="M249,442.2L207.8,410l0.8-1.7l65.5,14.2l0.4,1.7L249,442.2z M212.4,411.1l36.7,28.7l22.6-15.8L212.4,411.1z"
			/>
	</g>
	<g>
		<path class="st1" d="M236.8,314.5l-17.9-96.8l1.6-0.8l55.3,64.9L236.8,314.5z M221.5,220.9l16.6,90l35.1-29.3L221.5,220.9z"/>
	</g>
	<g>
		<path class="st1" d="M237.8,313.6l-1-1.6l37.2-31.1l1.5,0.6l2.8,17.7L237.8,313.6z M273.9,283.5L242.3,310l34-12.1L273.9,283.5z"
			/>
	</g>
	<g>
		<path class="st1" d="M201.8,210.1L225,102l1.8-0.1l34.8,95.5L201.8,210.1z M226.3,105.5l-22,102l54.8-11.6L226.3,105.5z"/>
	</g>
	<g>
		<path class="st1" d="M203.7,210.2l-22.2-10.3l43.6-98.1l1.8,0.6L203.7,210.2z M184.1,198.9l18.3,8.5l20.7-96.3L184.1,198.9z"/>
	</g>
	<g>
		<path class="st1" d="M229.2,316l-10.2-98.3l1.9-0.3l17.8,96L229.2,316z M223.4,241.9l7.4,71.6l5.5-1.4L223.4,241.9z"/>
	</g>
	<g>
		<path class="st1" d="M209.1,410.5l-14.8-5.4l34.7-90.7l1.8,0.6L209.1,410.5z M196.8,403.9l10.9,4.1l18.3-80.2L196.8,403.9z"/>
	</g>
	<g>
		<path class="st1" d="M219.9,218.7l-17.3-9l0.3-1.8l57.4-12.2l0.7,1.8L219.9,218.7z M205.9,209.2l14.1,7.3l33.7-17.4L205.9,209.2z"
			/>
	</g>
	<g>
		
			<rect x="163.9" y="430.2" transform="matrix(0.5949 -0.8038 0.8038 0.5949 -321.8393 328.415)" class="st1" width="1.9" height="106.6"/>
	</g>
	<g>
		<path class="st1" d="M196.5,404.9l-1.8-0.1l-21.2-92.4l58,1.4L196.5,404.9z M175.9,314.4l20,86.9l32.8-85.5L175.9,314.4z"/>
	</g>
	<g>
		<path class="st1" d="M231.1,315.7l-57.9-1.4l45.8-97.2l1.8,0.3L231.1,315.7z M176.2,312.5l52.8,1.3l-9.7-92.6L176.2,312.5z"/>
	</g>
	<g>
		<path class="st1" d="M208.5,495.5l-1.7-0.6l0.7-85.7l1.5-0.8l41.2,32.3L208.5,495.5z M209.4,411.2l-0.7,80.9l38.9-51L209.4,411.2z
			"/>
	</g>
	<g>
		<path class="st1" d="M175.5,313.8l-1.8-0.7l28.7-105.8l18.7,9.7L175.5,313.8z M203.7,210.2l-25.2,92.9l40.1-85.1L203.7,210.2z"/>
	</g>
	<g>
		<path class="st1" d="M208,82.5l-67-37.5l0.4-1.8l97.2-10.8l0.9,1.4L208,82.5z M144.7,44.7l62.7,35.2l29.4-45.5L144.7,44.7z"/>
	</g>
	<g>
		<path class="st1" d="M174.4,406.9l-0.7-93.5l1.9-0.2l21.1,92.3L174.4,406.9z M175.7,322.2l0.6,82.6l18.1-1.3L175.7,322.2z"/>
	</g>
	<g>
		<path class="st1" d="M206.9,495.3L174.1,405l22.4-1.4l12.3,91.4L206.9,495.3z M176.7,406.7l29,79.5l-10.8-80.7L176.7,406.7z"/>
	</g>
	<g>
		<path class="st1" d="M206.8,495.1l-12.4-92.1l15,5.5l-0.7,86.4L206.8,495.1z M196.7,406l10.1,75.4l0.6-71.4L196.7,406z"/>
	</g>
	<g>
		<path class="st1" d="M183.7,199.7l-1.8-0.6l25-118.1l1.6-0.4l18.6,21.4l-0.3,0.6L183.7,199.7z M208.3,83.3l-22.7,107.3l39.3-88.3
			L208.3,83.3z"/>
	</g>
	<g>
		<path class="st1" d="M175.6,313.6l-1.9-0.3l8.2-115.5l22.3,10.4L175.6,313.6z M183.6,200.8l-7.3,102.8l25.6-94.3L183.6,200.8z"/>
	</g>
	<g>
		<path class="st1" d="M183.5,200.4l-98.1-20.4l-0.4-1.7l122.2-97.9l1.5,1L183.5,200.4z M87.8,178.5l94.3,19.6l24.2-114.6
			L87.8,178.5z"/>
	</g>
	<g>
		<path class="st1" d="M207.4,495.8l-87-43.8l55.5-47.8l32.9,90.4L207.4,495.8z M123.8,451.6l82.2,41.5l-31.1-85.5L123.8,451.6z"/>
	</g>
	<g>
		<path class="st1" d="M86.1,179.9l-1.4-1.2l56.5-136L209.5,81L86.1,179.9z M142.1,45.4L87.9,176L206,81.3L142.1,45.4z"/>
	</g>
	<g>
		<path class="st1" d="M207.2,516l-85.7-63.5l1-1.6l86.3,43.4v20.8L207.2,516z M131.7,457.7l75.1,55.6v-17.8L131.7,457.7z"/>
	</g>
	<g>
		<path class="st1" d="M173.9,313.9l-83-119.5l0.9-1.5l92.1,5.5l-8.2,115L173.9,313.9z M93.6,195l80.3,115.6l7.8-110.4L93.6,195z"/>
	</g>
	<g>
		<path class="st1" d="M176.4,406.8h-64.5l-0.8-1.5l62.8-92.5l1.7,0.6L176.4,406.8z M113.7,404.9h60.6l-0.7-88.4L113.7,404.9z"/>
	</g>
	<g>
		<path class="st1" d="M84.8,179.6l-39.7-63.5l95.9-72.8l1.4,1.2l-56.1,135L84.8,179.6z M47.7,116.6L85.5,177l53.9-130L47.7,116.6z"
			/>
	</g>
	<g>
		<path class="st1" d="M47.7,332.8l42.9-139.2l1.7-0.3l84,120.7L47.7,332.8z M92,196.1L50.5,330.4L173,312.7L92,196.1z"/>
	</g>
	<g>
		<path class="st1" d="M182.7,200.3L91,194.9l-6.3-15.4l1.1-1.4l97.2,20.3L182.7,200.3z M92.3,193l77.4,4.6l-82.5-17.2L92.3,193z"/>
	</g>
	<g>
		<path class="st1" d="M121.5,453.6l-10.8-48.6h64.7l0.7,1.7L121.5,453.6z M113.1,406.8l9.6,43.1l50.1-43.1H113.1z"/>
	</g>
</g>
<g>
	<g>
		<g>
			<path class="st1" d="M170,167.3c0-23.7-14.4-44-34.9-52.7c-6.9-2.9-14.4-4.6-22.3-4.6H45.4h-0.1l0.1,159.5h34.7v-45h25.7l22,45
				h37.9l-26-51.8C157.8,208,170,189,170,167.3z M135.3,167.3c0,12.5-10.1,22.6-22.6,22.6H80.2v-45h32.5
				C125.2,144.7,135.3,154.8,135.3,167.3z"/>
		</g>
		<g>
			<path class="st1" d="M213.2,218.4V206l-29.5,27l29.5,28.2v-12.3c28.1,0,44.9,24.4,44.9,49.1c0,24.8-17.3,50-44.9,50
				c-29.9,0-44.9-25.2-44.9-50h-34.9c0,44,35.7,79.7,79.7,79.7c44,0,79.7-35.7,79.7-79.7C293.1,253.9,257.4,218.4,213.2,218.4z"/>
		</g>
	</g>
</g>
</svg>
